<?xml version="1.0" standalone="no"?>
<!DOCTYPE svg PUBLIC "-//W3C//DTD SVG 20010904//EN"
 "http://www.w3.org/TR/2001/REC-SVG-20010904/DTD/svg10.dtd">
<svg version="1.0" xmlns="http://www.w3.org/2000/svg"
 width="225.000000pt" height="225.000000pt" viewBox="0 0 225.000000 225.000000"
 preserveAspectRatio="xMidYMid meet">
<metadata>
Created by potrace 1.14, written by Peter Selinger 2001-2017
</metadata>
<g transform="translate(0.000000,225.000000) scale(0.100000,-0.100000)"
fill="#000000" stroke="none">
<path d="M885 2150 c-396 -5 -411 -6 -450 -27 -50 -27 -96 -75 -126 -133 l-24
-45 0 -820 0 -820 27 -51 c33 -63 91 -116 154 -140 46 -18 85 -19 669 -19
l620 0 50 27 c28 14 70 47 92 71 75 81 74 73 71 750 l-3 597 -305 304 c-243
242 -311 305 -335 308 -16 2 -214 1 -440 -2z m335 -429 l0 -249 26 -31 26 -31
254 0 254 0 0 -536 0 -536 -29 -29 -29 -29 -597 0 -597 0 -29 29 -29 29 0 782
c0 514 4 788 10 800 25 47 44 49 403 50 l337 0 0 -249z m307 -3 c62 -62 113
-116 113 -121 0 -4 -53 -6 -117 -5 l-118 3 -3 118 c-1 64 1 117 5 117 4 0 58
-51 120 -112z"/>
<path d="M714 1490 c-56 -23 -71 -99 -30 -147 24 -27 27 -28 141 -31 125 -4
165 5 190 42 23 31 18 81 -9 113 -24 28 -26 28 -148 30 -67 2 -133 -2 -144 -7z"/>
<path d="M685 1094 c-35 -38 -34 -92 3 -127 l28 -27 411 0 410 0 27 26 c35 36
36 95 1 129 l-24 25 -416 0 -416 0 -24 -26z"/>
<path d="M714 740 c-56 -22 -71 -99 -30 -147 l24 -28 417 0 417 0 24 28 c32
37 32 87 0 124 l-24 28 -404 2 c-221 1 -413 -2 -424 -7z"/>
</g>
</svg>
